<svg id="visual" viewBox="0 0 900 1400" width="900" height="1400" xmlns="http://www.w3.org/2000/svg" xmlns:xlink="http://www.w3.org/1999/xlink" version="1.1"><path d="M0 323L113 309L225 337L338 211L450 281L563 365L675 365L788 379L900 393L900 0L788 0L675 0L563 0L450 0L338 0L225 0L113 0L0 0Z" fill="#b0fffd"></path><path d="M0 799L113 603L225 855L338 617L450 659L563 631L675 799L788 729L900 911L900 391L788 377L675 363L563 363L450 279L338 209L225 335L113 307L0 321Z" fill="#afe1b5"></path><path d="M0 1177L113 1205L225 1177L338 1191L450 1233L563 1177L675 1191L788 1233L900 1247L900 909L788 727L675 797L563 629L450 657L338 615L225 853L113 601L0 797Z" fill="#c9ba79"></path><path d="M0 1401L113 1401L225 1401L338 1401L450 1401L563 1401L675 1401L788 1401L900 1401L900 1245L788 1231L675 1189L563 1175L450 1231L338 1189L225 1175L113 1203L0 1175Z" fill="#db8b6d"></path></svg>