<svg id="visual" viewBox="0 0 900 600" width="900" height="600" xmlns="http://www.w3.org/2000/svg" xmlns:xlink="http://www.w3.org/1999/xlink" version="1.1"><path d="M0 139L113 133L225 145L338 91L450 121L563 157L675 157L788 163L900 169L900 0L788 0L675 0L563 0L450 0L338 0L225 0L113 0L0 0Z" fill="#b0fffd"></path><path d="M0 343L113 259L225 367L338 265L450 283L563 271L675 343L788 313L900 391L900 167L788 161L675 155L563 155L450 119L338 89L225 143L113 131L0 137Z" fill="#afe1b5"></path><path d="M0 505L113 517L225 505L338 511L450 529L563 505L675 511L788 529L900 535L900 389L788 311L675 341L563 269L450 281L338 263L225 365L113 257L0 341Z" fill="#c9ba79"></path><path d="M0 601L113 601L225 601L338 601L450 601L563 601L675 601L788 601L900 601L900 533L788 527L675 509L563 503L450 527L338 509L225 503L113 515L0 503Z" fill="#db8b6d"></path></svg>