<svg id="visual" viewBox="0 0 900 450" width="900" height="450" xmlns="http://www.w3.org/2000/svg" xmlns:xlink="http://www.w3.org/1999/xlink" version="1.1"><g stroke-width="1" stroke-linejoin="bevel"><path d="M466.9 211L465.9 146L431.1 166Z" fill="#8daec7" stroke="#8daec7"></path><path d="M431.1 166L414.1 239L466.9 211Z" fill="#84a3b9" stroke="#84a3b9"></path><path d="M555.7 122L467.9 85L465.9 146Z" fill="#728c9d" stroke="#728c9d"></path><path d="M465.9 146L467.9 85L431.1 166Z" fill="#728c9d" stroke="#728c9d"></path><path d="M466.9 211L555.7 122L465.9 146Z" fill="#424b50" stroke="#424b50"></path><path d="M423.1 46L351.3 133L431.1 166Z" fill="#69818f" stroke="#69818f"></path><path d="M431.1 166L351.3 133L414.1 239Z" fill="#4a565c" stroke="#4a565c"></path><path d="M466.9 0L423.1 46L467.9 85Z" fill="#84a3b9" stroke="#84a3b9"></path><path d="M467.9 85L423.1 46L431.1 166Z" fill="#4a565c" stroke="#4a565c"></path><path d="M322.3 243L387.1 296L414.1 239Z" fill="#4a565c" stroke="#4a565c"></path><path d="M414.1 239L467.9 318L466.9 211Z" fill="#84a3b9" stroke="#84a3b9"></path><path d="M466.9 211L585.7 251L555.7 122Z" fill="#8daec7" stroke="#8daec7"></path><path d="M387.1 296L467.9 318L414.1 239Z" fill="#424b50" stroke="#424b50"></path><path d="M467.9 318L585.7 251L466.9 211Z" fill="#617682" stroke="#617682"></path><path d="M351.3 133L322.3 243L414.1 239Z" fill="#8daec7" stroke="#8daec7"></path><path d="M322.3 243L345.3 306L387.1 296Z" fill="#516068" stroke="#516068"></path><path d="M428.1 397L512.9 391L467.9 318Z" fill="#728c9d" stroke="#728c9d"></path><path d="M467.9 318L568.7 315L585.7 251Z" fill="#8daec7" stroke="#8daec7"></path><path d="M665.5 96L586.7 54L555.7 122Z" fill="#4a565c" stroke="#4a565c"></path><path d="M555.7 122L586.7 54L467.9 85Z" fill="#728c9d" stroke="#728c9d"></path><path d="M547.7 0L466.9 0L467.9 85Z" fill="#617682" stroke="#617682"></path><path d="M406.1 0L336.3 49L423.1 46Z" fill="#7b97ab" stroke="#7b97ab"></path><path d="M423.1 46L336.3 49L351.3 133Z" fill="#4a565c" stroke="#4a565c"></path><path d="M351.3 133L261.5 212L322.3 243Z" fill="#596b75" stroke="#596b75"></path><path d="M466.9 0L406.1 0L423.1 46Z" fill="#69818f" stroke="#69818f"></path><path d="M586.7 54L547.7 0L467.9 85Z" fill="#7b97ab" stroke="#7b97ab"></path><path d="M568.7 315L641.5 271L585.7 251Z" fill="#3b4144" stroke="#3b4144"></path><path d="M681.5 158L665.5 96L555.7 122Z" fill="#69818f" stroke="#69818f"></path><path d="M240.5 137L261.5 212L351.3 133Z" fill="#4a565c" stroke="#4a565c"></path><path d="M225.5 310L314.3 361L345.3 306Z" fill="#617682" stroke="#617682"></path><path d="M428.1 397L467.9 318L387.1 296Z" fill="#8daec7" stroke="#8daec7"></path><path d="M467.9 318L512.9 391L568.7 315Z" fill="#8daec7" stroke="#8daec7"></path><path d="M568.7 315L636.5 373L641.5 271Z" fill="#516068" stroke="#516068"></path><path d="M681.5 158L555.7 122L585.7 251Z" fill="#7b97ab" stroke="#7b97ab"></path><path d="M586.7 54L672.5 0L547.7 0Z" fill="#728c9d" stroke="#728c9d"></path><path d="M345.3 306L428.1 397L387.1 296Z" fill="#728c9d" stroke="#728c9d"></path><path d="M681.5 245L681.5 158L585.7 251Z" fill="#84a3b9" stroke="#84a3b9"></path><path d="M406.1 0L327.3 0L336.3 49Z" fill="#424b50" stroke="#424b50"></path><path d="M238.5 95L240.5 137L351.3 133Z" fill="#7b97ab" stroke="#7b97ab"></path><path d="M238.5 95L351.3 133L336.3 49Z" fill="#4a565c" stroke="#4a565c"></path><path d="M512.9 391L562.7 381L568.7 315Z" fill="#7b97ab" stroke="#7b97ab"></path><path d="M730.4 316L681.5 245L641.5 271Z" fill="#596b75" stroke="#596b75"></path><path d="M641.5 271L681.5 245L585.7 251Z" fill="#4a565c" stroke="#4a565c"></path><path d="M225.5 310L345.3 306L322.3 243Z" fill="#4a565c" stroke="#4a565c"></path><path d="M345.3 306L314.3 361L428.1 397Z" fill="#69818f" stroke="#69818f"></path><path d="M244.5 0L238.5 95L336.3 49Z" fill="#424b50" stroke="#424b50"></path><path d="M681.5 245L710.4 212L681.5 158Z" fill="#8daec7" stroke="#8daec7"></path><path d="M681.5 158L727.4 126L665.5 96Z" fill="#84a3b9" stroke="#84a3b9"></path><path d="M561.7 450L636.5 373L562.7 381Z" fill="#596b75" stroke="#596b75"></path><path d="M562.7 381L636.5 373L568.7 315Z" fill="#617682" stroke="#617682"></path><path d="M681.5 245L730.4 316L710.4 212Z" fill="#69818f" stroke="#69818f"></path><path d="M188.6 244L225.5 310L261.5 212Z" fill="#69818f" stroke="#69818f"></path><path d="M261.5 212L225.5 310L322.3 243Z" fill="#69818f" stroke="#69818f"></path><path d="M188.6 244L261.5 212L173.6 173Z" fill="#8daec7" stroke="#8daec7"></path><path d="M710.4 212L727.4 126L681.5 158Z" fill="#424b50" stroke="#424b50"></path><path d="M665.5 96L672.5 0L586.7 54Z" fill="#3b4144" stroke="#3b4144"></path><path d="M428.1 397L466.9 450L512.9 391Z" fill="#516068" stroke="#516068"></path><path d="M512.9 391L561.7 450L562.7 381Z" fill="#516068" stroke="#516068"></path><path d="M386.1 450L466.9 450L428.1 397Z" fill="#84a3b9" stroke="#84a3b9"></path><path d="M386.1 450L428.1 397L314.3 361Z" fill="#728c9d" stroke="#728c9d"></path><path d="M708.4 52L672.5 0L665.5 96Z" fill="#424b50" stroke="#424b50"></path><path d="M727.4 126L708.4 52L665.5 96Z" fill="#8daec7" stroke="#8daec7"></path><path d="M173.6 173L261.5 212L240.5 137Z" fill="#424b50" stroke="#424b50"></path><path d="M327.3 0L244.5 0L336.3 49Z" fill="#3b4144" stroke="#3b4144"></path><path d="M238.5 95L173.6 173L240.5 137Z" fill="#516068" stroke="#516068"></path><path d="M338.3 450L386.1 450L314.3 361Z" fill="#3b4144" stroke="#3b4144"></path><path d="M143.6 48L173.6 173L238.5 95Z" fill="#7b97ab" stroke="#7b97ab"></path><path d="M466.9 450L561.7 450L512.9 391Z" fill="#3b4144" stroke="#3b4144"></path><path d="M250.5 450L338.3 450L314.3 361Z" fill="#69818f" stroke="#69818f"></path><path d="M225.5 310L235.5 378L314.3 361Z" fill="#84a3b9" stroke="#84a3b9"></path><path d="M188.6 372L235.5 378L225.5 310Z" fill="#84a3b9" stroke="#84a3b9"></path><path d="M636.5 373L730.4 316L641.5 271Z" fill="#617682" stroke="#617682"></path><path d="M710.4 212L807.2 203L727.4 126Z" fill="#69818f" stroke="#69818f"></path><path d="M754.4 389L730.4 316L636.5 373Z" fill="#596b75" stroke="#596b75"></path><path d="M109.8 250L170.6 302L188.6 244Z" fill="#8daec7" stroke="#8daec7"></path><path d="M188.6 244L170.6 302L225.5 310Z" fill="#69818f" stroke="#69818f"></path><path d="M170.6 302L188.6 372L225.5 310Z" fill="#617682" stroke="#617682"></path><path d="M235.5 378L250.5 450L314.3 361Z" fill="#8daec7" stroke="#8daec7"></path><path d="M561.7 450L667.5 450L636.5 373Z" fill="#69818f" stroke="#69818f"></path><path d="M244.5 0L143.6 48L238.5 95Z" fill="#617682" stroke="#617682"></path><path d="M173.6 173L109.8 250L188.6 244Z" fill="#424b50" stroke="#424b50"></path><path d="M188.6 372L250.5 450L235.5 378Z" fill="#596b75" stroke="#596b75"></path><path d="M799.2 325L807.2 203L730.4 316Z" fill="#69818f" stroke="#69818f"></path><path d="M730.4 316L807.2 203L710.4 212Z" fill="#84a3b9" stroke="#84a3b9"></path><path d="M812.2 73L759.4 0L708.4 52Z" fill="#617682" stroke="#617682"></path><path d="M812.2 73L708.4 52L727.4 126Z" fill="#516068" stroke="#516068"></path><path d="M708.4 52L759.4 0L672.5 0Z" fill="#728c9d" stroke="#728c9d"></path><path d="M807.2 203L819.2 173L727.4 126Z" fill="#728c9d" stroke="#728c9d"></path><path d="M57.8 172L109.8 250L173.6 173Z" fill="#728c9d" stroke="#728c9d"></path><path d="M170.6 302L95.8 380L188.6 372Z" fill="#4a565c" stroke="#4a565c"></path><path d="M667.5 450L754.4 389L636.5 373Z" fill="#69818f" stroke="#69818f"></path><path d="M807.2 203L900 198L819.2 173Z" fill="#516068" stroke="#516068"></path><path d="M819.2 173L812.2 73L727.4 126Z" fill="#424b50" stroke="#424b50"></path><path d="M793.2 347L799.2 325L730.4 316Z" fill="#3b4144" stroke="#3b4144"></path><path d="M244.5 0L138.6 0L143.6 48Z" fill="#3b4144" stroke="#3b4144"></path><path d="M61.8 76L57.8 172L173.6 173Z" fill="#516068" stroke="#516068"></path><path d="M754.4 389L793.2 347L730.4 316Z" fill="#516068" stroke="#516068"></path><path d="M667.5 450L727.4 450L754.4 389Z" fill="#596b75" stroke="#596b75"></path><path d="M754.4 389L814.2 450L793.2 347Z" fill="#728c9d" stroke="#728c9d"></path><path d="M0 226L91.8 317L109.8 250Z" fill="#424b50" stroke="#424b50"></path><path d="M109.8 250L91.8 317L170.6 302Z" fill="#424b50" stroke="#424b50"></path><path d="M188.6 372L135.6 450L250.5 450Z" fill="#596b75" stroke="#596b75"></path><path d="M61.8 76L173.6 173L143.6 48Z" fill="#84a3b9" stroke="#84a3b9"></path><path d="M138.6 0L91.8 0L143.6 48Z" fill="#69818f" stroke="#69818f"></path><path d="M91.8 0L61.8 76L143.6 48Z" fill="#3b4144" stroke="#3b4144"></path><path d="M0 361L95.8 380L91.8 317Z" fill="#596b75" stroke="#596b75"></path><path d="M91.8 317L95.8 380L170.6 302Z" fill="#424b50" stroke="#424b50"></path><path d="M900 153L812.2 73L819.2 173Z" fill="#7b97ab" stroke="#7b97ab"></path><path d="M900 75L844.2 0L812.2 73Z" fill="#4a565c" stroke="#4a565c"></path><path d="M812.2 73L844.2 0L759.4 0Z" fill="#516068" stroke="#516068"></path><path d="M95.8 380L135.6 450L188.6 372Z" fill="#4a565c" stroke="#4a565c"></path><path d="M900 323L807.2 203L799.2 325Z" fill="#596b75" stroke="#596b75"></path><path d="M900 323L900 198L807.2 203Z" fill="#516068" stroke="#516068"></path><path d="M900 323L799.2 325L900 361Z" fill="#3b4144" stroke="#3b4144"></path><path d="M900 198L900 153L819.2 173Z" fill="#617682" stroke="#617682"></path><path d="M727.4 450L814.2 450L754.4 389Z" fill="#7b97ab" stroke="#7b97ab"></path><path d="M900 153L900 75L812.2 73Z" fill="#84a3b9" stroke="#84a3b9"></path><path d="M900 361L799.2 325L793.2 347Z" fill="#596b75" stroke="#596b75"></path><path d="M61.8 76L0 148L57.8 172Z" fill="#424b50" stroke="#424b50"></path><path d="M57.8 172L0 226L109.8 250Z" fill="#516068" stroke="#516068"></path><path d="M0 84L0 148L61.8 76Z" fill="#8daec7" stroke="#8daec7"></path><path d="M0 148L0 226L57.8 172Z" fill="#4a565c" stroke="#4a565c"></path><path d="M95.8 380L59.8 450L135.6 450Z" fill="#617682" stroke="#617682"></path><path d="M0 0L0 84L61.8 76Z" fill="#3b4144" stroke="#3b4144"></path><path d="M900 75L900 0L844.2 0Z" fill="#424b50" stroke="#424b50"></path><path d="M814.2 450L900 361L793.2 347Z" fill="#3b4144" stroke="#3b4144"></path><path d="M0 226L0 324L91.8 317Z" fill="#617682" stroke="#617682"></path><path d="M0 361L59.8 450L95.8 380Z" fill="#69818f" stroke="#69818f"></path><path d="M91.8 0L0 0L61.8 76Z" fill="#728c9d" stroke="#728c9d"></path><path d="M0 324L0 361L91.8 317Z" fill="#7b97ab" stroke="#7b97ab"></path><path d="M814.2 450L900 450L900 361Z" fill="#728c9d" stroke="#728c9d"></path><path d="M0 361L0 450L59.8 450Z" fill="#424b50" stroke="#424b50"></path></g></svg>